<svg id="instagram" width="16" height="16" viewBox="0 0 16 16" fill="none" xmlns="http://www.w3.org/2000/svg">
    <g clip-path="url(#clip0_47_387)">
    <path d="M8.00279 3.892C5.73413 3.892 3.89746 5.73067 3.89746 7.99733C3.89746 10.266 5.73613 12.1027 8.00279 12.1027C10.2715 12.1027 12.1081 10.264 12.1081 7.99733C12.1081 5.72867 10.2695 3.892 8.00279 3.892ZM8.00279 10.662C6.53013 10.662 5.33813 9.46933 5.33813 7.99733C5.33813 6.52533 6.53079 5.33267 8.00279 5.33267C9.47479 5.33267 10.6675 6.52533 10.6675 7.99733C10.6681 9.46933 9.47546 10.662 8.00279 10.662Z" fill="currentColor"/>
    <path d="M11.2988 0.0506698C9.82682 -0.0179969 6.18082 -0.0146636 4.70749 0.0506698C3.41282 0.111336 2.27082 0.424003 1.35015 1.34467C-0.188515 2.88334 0.00815151 4.95667 0.00815151 7.99734C0.00815151 11.1093 -0.165182 13.1347 1.35015 14.65C2.89482 16.194 4.99815 15.992 8.00282 15.992C11.0855 15.992 12.1495 15.994 13.2395 15.572C14.7215 14.9967 15.8402 13.672 15.9495 11.2927C16.0188 9.82 16.0148 6.17467 15.9495 4.70134C15.8175 1.89267 14.3102 0.189336 11.2988 0.0506698ZM13.6288 13.632C12.6202 14.6407 11.2208 14.5507 7.98349 14.5507C4.65015 14.5507 3.31348 14.6 2.33815 13.622C1.21482 12.504 1.41815 10.7087 1.41815 7.98667C1.41815 4.30334 1.04015 1.65067 4.73682 1.46134C5.58615 1.43134 5.83615 1.42134 7.97415 1.42134L8.00415 1.44134C11.5568 1.44134 14.3442 1.06934 14.5115 4.76534C14.5495 5.60867 14.5582 5.862 14.5582 7.99667C14.5575 11.2913 14.6202 12.636 13.6288 13.632Z" fill="currentColor"/>
    <path d="M12.2709 4.68933C12.8007 4.68933 13.2302 4.25983 13.2302 3.73C13.2302 3.20018 12.8007 2.77067 12.2709 2.77067C11.741 2.77067 11.3115 3.20018 11.3115 3.73C11.3115 4.25983 11.741 4.68933 12.2709 4.68933Z" fill="currentColor"/>
    </g>
    <defs>
    <clipPath id="clip0_47_387">
    <rect width="16" height="16" fill="white"/>
    </clipPath>
    </defs>
</svg>