<svg width="16" height="16" viewBox="0 0 16 16" fill="none" xmlns="http://www.w3.org/2000/svg">
    <path d="M5.21251 14.0069C10.8732 14.0069 13.9688 9.31718 13.9688 5.25062C13.9688 5.11742 13.966 4.98478 13.96 4.85287C14.5609 4.41843 15.0831 3.87629 15.4952 3.25921C14.9438 3.50441 14.3503 3.66925 13.7279 3.74383C14.3632 3.36269 14.851 2.76001 15.0811 2.04157C14.4865 2.39409 13.828 2.65021 13.1269 2.78854C12.5654 2.19035 11.7657 1.81627 10.8804 1.81627C9.18101 1.81627 7.80274 3.19445 7.80274 4.89332C7.80274 5.13494 7.8298 5.36978 7.88255 5.59507C5.32479 5.46637 3.05663 4.24184 1.53893 2.37969C1.27475 2.8344 1.12229 3.36278 1.12229 3.92656C1.12229 4.99413 1.66561 5.93686 2.49175 6.48817C1.98686 6.47267 1.51261 6.33406 1.09798 6.10335C1.09752 6.11629 1.09752 6.12886 1.09752 6.14262C1.09752 7.63307 2.1583 8.87751 3.56666 9.15949C3.30798 9.22985 3.03581 9.26773 2.75511 9.26773C2.55715 9.26773 2.36415 9.24829 2.17665 9.21223C2.56844 10.435 3.70463 11.3248 5.05161 11.3498C3.99826 12.1754 2.67136 12.6671 1.22925 12.6671C0.981204 12.6671 0.736005 12.6529 0.495117 12.6245C1.85715 13.4975 3.47447 14.007 5.2126 14.007" fill="#008060"/>
</svg>